<?xml version="1.0" encoding="UTF-8" standalone="no"?>
<!-- Created with Inkscape (http://www.inkscape.org/) -->

<svg
   width="820"
   height="465"
   viewBox="0 0 216.95833 123.03125"
   version="1.1"
   id="svg128"
   xml:space="preserve"
   inkscape:export-filename="dw.png"
   inkscape:export-xdpi="96"
   inkscape:export-ydpi="96"
   inkscape:version="1.2.2 (b0a8486541, 2022-12-01)"
   sodipodi:docname="deutsche_welle.svg"
   xmlns:inkscape="http://www.inkscape.org/namespaces/inkscape"
   xmlns:sodipodi="http://sodipodi.sourceforge.net/DTD/sodipodi-0.dtd"
   xmlns="http://www.w3.org/2000/svg"
   xmlns:svg="http://www.w3.org/2000/svg"><sodipodi:namedview
     id="namedview130"
     pagecolor="#ffffff"
     bordercolor="#999999"
     borderopacity="1"
     inkscape:showpageshadow="0"
     inkscape:pageopacity="0"
     inkscape:pagecheckerboard="0"
     inkscape:deskcolor="#d1d1d1"
     inkscape:document-units="px"
     showgrid="false"
     inkscape:zoom="1.0037017"
     inkscape:cx="418.94918"
     inkscape:cy="190.79374"
     inkscape:window-width="1600"
     inkscape:window-height="831"
     inkscape:window-x="0"
     inkscape:window-y="32"
     inkscape:window-maximized="1"
     inkscape:current-layer="g1221" /><defs
     id="defs125" /><g
     inkscape:groupmode="layer"
     id="layer2"
     inkscape:label="Capa 2"><circle
       style="fill:#ffffff;fill-opacity:1;stroke-width:0.365865"
       id="path1129"
       cx="63.704956"
       cy="61.515625"
       r="49.609375" /></g><g
     inkscape:groupmode="layer"
     id="g1221"
     inkscape:label="Capa 3"
     transform="translate(94.38236)"><circle
       style="fill:#ffffff;fill-opacity:1;stroke-width:0.365865"
       id="circle1219"
       cx="63.704956"
       cy="61.515625"
       r="49.609375" /></g><g
     inkscape:label="Capa 1"
     inkscape:groupmode="layer"
     id="layer1"><path
       style="fill:#012d5b;fill-opacity:1;stroke-width:0.24064"
       d="M 58.557366,122.71604 C 39.472467,121.45184 22.144349,111.33037 11.413848,95.17924 -0.5076018,77.235533 -1.971874,54.032644 7.5851379,34.509439 15.218895,18.915089 29.196066,7.2389961 45.98589,2.4306496 51.38697,0.88386518 56.503398,0.19478018 62.679231,0.18236545 78.878107,0.14980738 93.707977,6.165063 105.43137,17.523365 l 3.10064,3.004083 2.94236,-2.872659 c 4.96182,-4.844273 9.75806,-8.2371765 15.9369,-11.2738642 8.45048,-4.1531398 17.26257,-6.17574006 26.95163,-6.18611795 13.94707,-0.0149158 26.70091,4.36153535 37.90074,13.00560515 2.6316,2.031086 8.35432,7.753802 10.38541,10.385415 6.92908,8.977785 11.0957,18.960983 12.60446,30.200268 0.5116,3.81104 0.5088,11.513099 -0.006,15.400929 -2.36386,17.86663 -12.03244,33.474396 -26.83452,43.318356 -10.33074,6.87035 -21.56079,10.27159 -33.93019,10.27638 -9.95471,0.004 -18.33451,-1.91347 -27.07194,-6.19414 -6.14724,-3.01166 -11.02726,-6.47174 -16.0598,-11.38691 l -2.82465,-2.75874 -2.95071,2.86763 c -3.30495,3.21188 -5.896837,5.30167 -9.447977,7.61773 -11.030079,7.19376 -24.351007,10.66442 -37.570774,9.78871 z m 10.57617,-13.70902 c 7.959635,-1.15262 15.069295,-3.99754 21.634897,-8.65717 2.599353,-1.844763 7.061358,-6.062157 9.141122,-8.639992 C 113.92716,74.33528 114.21573,49.93693 100.61427,32.128534 99.054699,30.086578 95.009686,25.96146 92.879501,24.240579 76.54642,11.045843 53.525856,9.9685172 36.150137,21.585755 15.880492,35.137831 8.9883377,61.26067 19.908806,83.144125 c 4.220031,8.456494 11.946362,16.32378 20.332248,20.703185 4.998201,2.61024 11.142208,4.57841 16.06123,5.14505 1.25734,0.14484 2.665083,0.30734 3.128314,0.36113 1.311985,0.1523 7.877463,-0.0821 9.702938,-0.34647 z M 36.569839,61.984291 V 38.264838 h 17.419784 c 18.86749,0 19.144615,0.0161 23.368621,1.354798 7.316356,2.31878 13.030398,7.693138 15.227423,14.322175 0.971204,2.930385 1.253051,4.765164 1.251415,8.146353 -0.0028,6.474567 -2.20442,12.031754 -6.410439,16.18343 -3.527938,3.482354 -7.31231,5.452111 -12.956073,6.743634 -2.058881,0.47116 -3.047471,0.500373 -20.033243,0.59206 l -17.867488,0.09643 z m 33.72108,9.382869 c 1.842896,-0.390614 3.682037,-1.261965 4.875677,-2.309995 2.570117,-2.256597 3.493076,-7.105344 2.072373,-10.887171 -0.99603,-2.651376 -2.850782,-4.399042 -5.825217,-5.488883 -1.463865,-0.536361 -1.823877,-0.558207 -10.599477,-0.643137 l -9.084143,-0.08796 v 9.881841 9.88185 l 8.482545,-0.0046 c 6.355835,-0.0028 8.88261,-0.08895 10.078242,-0.342402 z m 78.356351,9.190089 c 0.68708,-1.621308 2.61171,-6.193047 4.27696,-10.159412 1.66523,-3.966364 3.05594,-7.239796 3.09045,-7.274302 0.0345,-0.03448 1.16637,2.615115 2.51526,5.888054 1.34889,3.272932 3.24123,7.845827 4.20519,10.161978 l 1.75267,4.211193 h 6.11237 6.11239 l 3.76452,-11.911652 c 2.07048,-6.55142 4.22576,-13.373546 4.78951,-15.160293 0.56375,-1.786757 1.82726,-5.763189 2.80783,-8.836539 0.98054,-3.073341 1.78281,-5.700952 1.78281,-5.839142 0,-0.170295 -2.26665,-0.230686 -7.03491,-0.187448 l -7.03494,0.06376 -0.62651,2.165756 c -0.34459,1.191168 -1.75403,6.090693 -3.1321,10.887834 -1.37806,4.797143 -2.55971,8.722297 -2.62589,8.722561 -0.0662,2.36e-4 -0.43281,-0.892615 -0.81476,-1.984174 -0.97201,-2.777915 -6.60797,-18.446657 -6.92431,-19.25054 l -0.26043,-0.661755 h -5.34004 -5.34006 l -3.95101,10.941586 c -2.17307,6.017878 -4.01553,10.86376 -4.09436,10.768625 -0.0788,-0.09513 -1.5393,-5.018851 -3.24544,-10.941595 l -3.10209,-10.768616 h -7.04642 c -3.87554,0 -7.04643,0.05421 -7.04643,0.120454 0,0.110314 8.43387,26.841278 11.82512,37.479481 l 1.43834,4.511985 h 5.94852 5.94853 z"
       id="path298" /></g><style
     id="style374">.st0{fill:#012d5b}</style></svg>
